<?xml version="1.0" standalone="no"?>
<!DOCTYPE svg PUBLIC "-//W3C//DTD SVG 1.1//EN"
  "http://www.w3.org/Graphics/SVG/1.1/DTD/svg11.dtd">
<svg width="144mm" height="154mm" viewBox="-296 -81 144 154" xmlns="http://www.w3.org/2000/svg" version="1.1">
	<title>svgOutput</title>
	<desc>made with tinkercad</desc>
<path d="M -153 47.755001068115234 L -167 47.755001068115234 L -167 67.00299835205078 L -167 72 L -176.0030059814453 72 L -196.0030059814453 72 L -231.9980010986328 72 L -276.00299072265625 72 L -295 72 L -295 47.755001068115234 L -295 -56.6870002746582 L -295 -80 L -276.00299072265625 -80 L -232.0030059814453 -80 L -231.9980010986328 -80 L -227.9980010986328 -80 L -196.0030059814453 -80 L -191.9980010986328 -80 L -176.0030059814453 -80 L -171.9980010986328 -80 L -167 -80 L -167 -72.99800109863281 L -167 -56.6870002746582 L -166.0030059814453 -56.6870002746582 L -161.697998046875 -56.6870002746582 L -153 -56.6870002746582 L -153 4.002999782562256 L -153 15.590999603271484 L -153 47.755001068115234 M -172.08285522460938 65.53600311279297 L -171.9980010986328 65 L -172.0959930419922 64.38099670410156 L -172.3800048828125 63.823001861572266 L -172.822998046875 63.380001068115234 L -173.38099670410156 63.09600067138672 L -174 62.99800109863281 L -174.61900329589844 63.09600067138672 L -175.177001953125 63.380001068115234 L -175.6199951171875 63.823001861572266 L -175.90499877929688 64.38099670410156 L -176.0030059814453 65 L -175.9181365966797 65.53600311279297 L -175.90499877929688 65.61900329589844 L -175.6199951171875 66.177001953125 L -175.177001953125 66.62000274658203 L -174.61900329589844 66.90399932861328 L -174 67.00299835205078 L -173.38099670410156 66.90399932861328 L -172.822998046875 66.62000274658203 L -172.3800048828125 66.177001953125 L -172.0959930419922 65.61900329589844 L -172.08285522460938 65.53600311279297 M -228.0959930419922 -60.38100051879883 L -227.9980010986328 -61 L -228.06765747070312 -61.439998626708984 L -228.0959930419922 -61.61899948120117 L -228.3800048828125 -62.176998138427734 L -228.822998046875 -62.619998931884766 L -229.38099670410156 -62.904998779296875 L -230 -63.00299835205078 L -230.61900329589844 -62.904998779296875 L -231.177001953125 -62.619998931884766 L -231.6199951171875 -62.176998138427734 L -231.90499877929688 -61.61899948120117 L -231.93333435058594 -61.439998626708984 L -232.0030059814453 -61 L -231.90499877929688 -60.38100051879883 L -231.6199951171875 -59.823001861572266 L -231.177001953125 -59.380001068115234 L -230.61900329589844 -59.09600067138672 L -230 -58.99800109863281 L -229.38099670410156 -59.09600067138672 L -228.822998046875 -59.380001068115234 L -228.3800048828125 -59.823001861572266 L -228.0959930419922 -60.38100051879883 M -195.90499877929688 64.38099670410156 L -196.0030059814453 65 L -195.9181365966797 65.53600311279297 L -195.90499877929688 65.61900329589844 L -195.6199951171875 66.177001953125 L -195.177001953125 66.62000274658203 L -194.61900329589844 66.90399932861328 L -194 67.00299835205078 L -193.38099670410156 66.90399932861328 L -192.822998046875 66.62000274658203 L -192.3800048828125 66.177001953125 L -192.0959930419922 65.61900329589844 L -192.08285522460938 65.53600311279297 L -191.9980010986328 65 L -192.0959930419922 64.38099670410156 L -192.3800048828125 63.823001861572266 L -192.822998046875 63.380001068115234 L -193.38099670410156 63.09600067138672 L -194 62.99800109863281 L -194.61900329589844 63.09600067138672 L -195.177001953125 63.380001068115234 L -195.6199951171875 63.823001861572266 L -195.90499877929688 64.38099670410156 M -192.0959930419922 -74.38099670410156 L -191.9980010986328 -75 L -192.0959930419922 -75.61900329589844 L -192.3800048828125 -76.177001953125 L -192.51199340820312 -76.30899810791016 L -192.822998046875 -76.62000274658203 L -193.38099670410156 -76.90399932861328 L -194 -77.00299835205078 L -194.61900329589844 -76.90399932861328 L -195.177001953125 -76.62000274658203 L -195.6199951171875 -76.177001953125 L -195.90499877929688 -75.61900329589844 L -196.0030059814453 -75 L -195.90499877929688 -74.38099670410156 L -195.6199951171875 -73.822998046875 L -195.52499389648438 -73.72799682617188 L -195.177001953125 -73.37999725341797 L -194.61900329589844 -73.09600067138672 L -194 -72.99800109863281 L -193.38099670410156 -73.09600067138672 L -192.822998046875 -73.37999725341797 L -192.47500610351562 -73.72799682617188 L -192.3800048828125 -73.822998046875 L -192.0959930419922 -74.38099670410156 M -174.61900329589844 -73.09600067138672 L -174 -72.99800109863281 L -173.38099670410156 -73.09600067138672 L -172.822998046875 -73.37999725341797 L -172.47500610351562 -73.72799682617188 L -172.3800048828125 -73.822998046875 L -172.0959930419922 -74.38099670410156 L -172.03199768066406 -74.78524780273438 L -171.9980010986328 -75 L -172.03199768066406 -75.21475219726562 L -172.0959930419922 -75.61900329589844 L -172.3800048828125 -76.177001953125 L -172.822998046875 -76.62000274658203 L -173.38099670410156 -76.90399932861328 L -174 -77.00299835205078 L -174.0800018310547 -76.99020385742188 L -174.61900329589844 -76.90399932861328 L -175.177001953125 -76.62000274658203 L -175.6199951171875 -76.177001953125 L -175.90499877929688 -75.61900329589844 L -176.0030059814453 -75 L -175.90499877929688 -74.38099670410156 L -175.6199951171875 -73.822998046875 L -175.52499389648438 -73.72799682617188 L -175.177001953125 -73.37999725341797 L -174.61900329589844 -73.09600067138672 M -185.9409942626953 -24.235000610351562 L -185.76744079589844 -24.576000213623047 L -185.65699768066406 -24.792999267578125 L -185.5590057373047 -25.41200065612793 L -185.65699768066406 -26.0310001373291 L -185.9409942626953 -26.589000701904297 L -186.38400268554688 -27.031999588012695 L -186.94200134277344 -27.31599998474121 L -187.56100463867188 -27.413999557495117 L -188.17999267578125 -27.31599998474121 L -188.73800659179688 -27.031999588012695 L -189.18099975585938 -26.589000701904297 L -189.46600341796875 -26.0310001373291 L -189.56399536132812 -25.41200065612793 L -189.46600341796875 -24.792999267578125 L -189.35516357421875 -24.576000213623047 L -189.18099975585938 -24.235000610351562 L -188.73800659179688 -23.79199981689453 L -188.17999267578125 -23.506999969482422 L -187.56100463867188 -23.409000396728516 L -186.94200134277344 -23.506999969482422 L -186.38400268554688 -23.79199981689453 L -185.9409942626953 -24.235000610351562 M -162.5850067138672 0.10899999737739567 L -162.79872131347656 4.440892164675075e-17 L -163.18499755859375 -0.19699999690055842 L -163.85000610351562 -0.30199998617172236 L -164.51499938964844 -0.19699999690055842 L -164.90127563476562 4.440892164675075e-17 L -165.11500549316406 0.10899999737739567 L -165.59100341796875 0.5849999785423279 L -165.89700317382812 1.184999942779541 L -166.0030059814453 1.850000023841858 L -165.89700317382812 2.515000104904175 L -165.59100341796875 3.115000009536743 L -165.11500549316406 3.5910000801086426 L -164.51499938964844 3.8970000743865967 L -163.85000610351562 4.002999782562256 L -163.83999633789062 4.001406192779541 L -163.18499755859375 3.8970000743865967 L -162.5850067138672 3.5910000801086426 L -162.10899353027344 3.115000009536743 L -161.80299377441406 2.515000104904175 L -161.697998046875 1.850000023841858 L -161.80299377441406 1.184999942779541 L -162.10899353027344 0.5849999785423279 L -162.5850067138672 0.10899999737739567 M -186.94200134277344 11.684000015258789 L -187.56100463867188 11.586000442504883 L -188.17999267578125 11.684000015258789 L -188.73800659179688 11.968000411987305 L -189.05799865722656 12.288000106811523 L -189.18099975585938 12.41100025177002 L -189.46600341796875 12.968999862670898 L -189.56399536132812 13.588000297546387 L -189.46600341796875 14.206999778747559 L -189.18099975585938 14.765000343322754 L -188.73800659179688 15.208000183105469 L -188.41600036621094 15.372462272644043 L -188.17999267578125 15.493000030517578 L -187.56100463867188 15.590999603271484 L -186.94200134277344 15.493000030517578 L -186.38400268554688 15.208000183105469 L -185.9409942626953 14.765000343322754 L -185.65699768066406 14.206999778747559 L -185.5590057373047 13.588000297546387 L -185.65699768066406 12.968999862670898 L -185.9409942626953 12.41100025177002 L -186.06399536132812 12.288000106811523 L -186.38400268554688 11.968000411987305 L -186.94200134277344 11.684000015258789 M -231.9980010986328 -74.00299835205078 L -232.0030059814453 -74.00299835205078 L -276.00299072265625 -74.00299835205078 L -276.00299072265625 -68.99800109863281 L -232.0030059814453 -68.99800109863281 L -231.9980010986328 -68.99800109863281 L -231.9980010986328 -74.00299835205078 M -276.00299072265625 60.99800109863281 L -276.00299072265625 66.00299835205078 L -231.9980010986328 66.00299835205078 L -231.9980010986328 60.99800109863281 L -276.00299072265625 60.99800109863281 z" fill="none" stroke="rgb(0,0,255)" stroke-width="0.01mm" />
</svg>