<?xml version="1.0" standalone="no"?>
<!DOCTYPE svg PUBLIC "-//W3C//DTD SVG 1.1//EN"
  "http://www.w3.org/Graphics/SVG/1.1/DTD/svg11.dtd">
<svg width="137mm" height="159.74600219726562mm" viewBox="-68.5 -75.74600219726562 137 159.74600219726562" xmlns="http://www.w3.org/2000/svg" version="1.1">
	<title>svgOutput</title>
	<desc>made with tinkercad</desc>
<path d="M -41.71900177001953 -26.867000579833984 L -41.68046569824219 -26.624000549316406 L -41.62099838256836 -26.249000549316406 L -41.71900177001953 -25.631000518798828 L -42.00299835205078 -25.072999954223633 L -42.44499969482422 -24.6299991607666 L -42.55109786987305 -24.576000213623047 L -43.00299835205078 -24.34600067138672 L -43.62200164794922 -24.24799919128418 L -44.2400016784668 -24.34600067138672 L -44.69190216064453 -24.576000213623047 L -44.79800033569336 -24.6299991607666 L -45.055999755859375 -24.88858413696289 L -45.2400016784668 -25.072999954223633 L -45.52399826049805 -25.631000518798828 L -45.62200164794922 -26.249000549316406 L -45.52399826049805 -26.867000579833984 L -45.2400016784668 -27.424999237060547 L -45.055999755859375 -27.608999252319336 L -44.79800033569336 -27.867000579833984 L -44.2400016784668 -28.150999069213867 L -43.62200164794922 -28.249000549316406 L -43.00299835205078 -28.150999069213867 L -42.44499969482422 -27.867000579833984 L -42.00299835205078 -27.424999237060547 L -41.71900177001953 -26.867000579833984 M -44.2400016784668 -44.35100173950195 L -44.79800033569336 -44.6349983215332 L -45.21900177001953 -45.055999755859375 L -45.2400016784668 -45.07699966430664 L -45.52399826049805 -45.6349983215332 L -45.62200164794922 -46.25299835205078 L -45.52399826049805 -46.87099838256836 L -45.2400016784668 -47.42900085449219 L -45.055999755859375 -47.612998962402344 L -44.79800033569336 -47.87099838256836 L -44.2400016784668 -48.154998779296875 L -43.62200164794922 -48.25299835205078 L -43.00299835205078 -48.154998779296875 L -42.44499969482422 -47.87099838256836 L -42.00299835205078 -47.42900085449219 L -41.837589263916016 -47.104000091552734 L -41.71900177001953 -46.87099838256836 L -41.62099838256836 -46.25299835205078 L -41.71900177001953 -45.6349983215332 L -42.00299835205078 -45.07699966430664 L -42.02399826049805 -45.055999755859375 L -42.44499969482422 -44.6349983215332 L -43.00299835205078 -44.35100173950195 L -43.62200164794922 -44.25299835205078 L -44.2400016784668 -44.35100173950195 M 17.824722290039062 -51.41988754272461 L 17.786291122436523 -51.451438903808594 L 17.492483139038086 -51.69264602661133 L 17.140771865844727 -52.04436111450195 L 16.938175201416016 -52.423065185546875 L 16.748132705688477 -52.88291549682617 L 16.71245765686035 -53.24800109863281 L 16.70631217956543 -53.310874938964844 L 16.68168830871582 -53.559268951416016 L 16.681907653808594 -53.560611724853516 L 16.74217987060547 -53.927574157714844 L 16.815597534179688 -54.24308776855469 L 16.986595153808594 -54.51816940307617 L 17.08720588684082 -54.7400016784668 L 17.140771865844727 -54.85810470581055 L 17.310476303100586 -55.0391960144043 L 17.3961238861084 -55.13058853149414 L 17.632640838623047 -55.35177230834961 L 17.927705764770508 -55.485595703125 L 18.24462127685547 -55.68259811401367 L 18.4874324798584 -55.73945617675781 L 18.608110427856445 -55.76771545410156 L 18.92780303955078 -55.820220947265625 L 19.143875122070312 -55.799312591552734 L 19.517000198364258 -55.7869987487793 L 19.631319046020508 -55.752140045166016 L 19.7242431640625 -55.72380447387695 L 20.083433151245117 -55.48403549194336 L 20.63910484313965 -55.214229583740234 L 20.761144638061523 -55.03164291381836 L 20.878875732421875 -54.85550308227539 L 20.97370147705078 -54.7400016784668 L 21.193113327026367 -54.47274398803711 L 21.224306106567383 -54.33869552612305 L 21.266530990600586 -54.157230377197266 L 21.397687911987305 -53.808197021484375 L 21.40999984741211 -53.4350700378418 L 21.403827667236328 -53.24800109863281 L 21.39931297302246 -53.11119842529297 L 21.28546905517578 -52.80776596069336 L 21.200885772705078 -52.444278717041016 L 21.105609893798828 -52.32838821411133 L 20.928125381469727 -52.11250305175781 L 20.65189552307129 -51.6992301940918 L 20.538476943969727 -51.638553619384766 L 20.273189544677734 -51.49663162231445 L 19.859378814697266 -51.21986770629883 L 19.743011474609375 -51.21300506591797 L 19.3236141204834 -51.188270568847656 L 18.711732864379883 -51.10368728637695 L 18.600181579589844 -51.14560317993164 L 18.408767700195312 -51.217533111572266 L 18.045278549194336 -51.3021125793457 L 17.824722290039062 -51.41988754272461 M -17.081884384155273 -54.747825622558594 L -17.025020599365234 -54.656349182128906 L -16.910886764526367 -54.47274398803711 L -16.83746910095215 -54.157230377197266 L -16.70631217956543 -53.808197021484375 L -16.694000244140625 -53.4350700378418 L -16.700172424316406 -53.24800109863281 L -16.704687118530273 -53.11119842529297 L -16.818531036376953 -52.80776596069336 L -16.903114318847656 -52.444278717041016 L -17.020885467529297 -52.22372055053711 L -17.051740646362305 -52.18619155883789 L -17.29364776611328 -51.89194869995117 L -17.452104568481445 -51.6992301940918 L -17.755638122558594 -51.48134994506836 L -18.03072166442871 -51.30988693237305 L -18.237964630126953 -51.247154235839844 L -18.586999893188477 -51.11600112915039 L -18.6712646484375 -51.11600112915039 L -19.517000198364258 -51.11600112915039 L -19.915687561035156 -51.28095626831055 L -20.26472282409668 -51.412113189697266 L -20.287338256835938 -51.434730529785156 L -20.570009231567383 -51.717403411865234 L -20.952770233154297 -52.031639099121094 L -21.0096435546875 -52.15703582763672 L -21.08659553527832 -52.32670593261719 L -21.283597946166992 -52.643619537353516 L -21.355867385864258 -52.88291549682617 L -21.360538482666016 -52.93070983886719 L -21.391542434692383 -53.24800109863281 L -21.397687911987305 -53.310874938964844 L -21.422311782836914 -53.559268951416016 L -21.42209243774414 -53.560611724853516 L -21.361820220947266 -53.927574157714844 L -21.288402557373047 -54.24308776855469 L -21.186174392700195 -54.43406677246094 L -21.031999588012695 -54.77399826049805 L -20.967205047607422 -54.843143463134766 L -20.776647567749023 -55.04648208618164 L -20.471359252929688 -55.35177230834961 L -20.27991485595703 -55.45399856567383 L -19.96299934387207 -55.6510009765625 L -19.841737747192383 -55.6879768371582 L -19.7242431640625 -55.72380447387695 L -19.300928115844727 -55.80791091918945 L -18.92780303955078 -55.820220947265625 L -18.711732864379883 -55.799312591552734 L -18.408767700195312 -55.68500518798828 L -18.045278549194336 -55.59988784790039 L -17.824722290039062 -55.482112884521484 L -17.785221099853516 -55.449737548828125 L -17.492483139038086 -55.209815979003906 L -17.29922866821289 -55.051361083984375 L -17.081884384155273 -54.747825622558594 M 4.760972499847412 -51.9276237487793 L 4.760199069976807 -51.92584228515625 L 4.5086565017700195 -51.34678649902344 L 4.201320648193359 -50.75371551513672 L 4.173540115356445 -50.70010757446289 L 3.9899954795837402 -50.44035720825195 L 3.6503217220306396 -50.10811996459961 L 3.2948625087738037 -49.69163131713867 L 2.854820966720581 -49.36561584472656 L 2.5372040271759033 -49.152000427246094 L 2.4603164196014404 -49.10028839111328 L 2.168968439102173 -48.97343444824219 L 1.6770000457763672 -48.731998443603516 L 0.34200000762939453 -48.45500183105469 L -8.01137720616088e-14 -48.478370666503906 L -0.002189666498452425 -48.478519439697266 L -0.29041552543640137 -48.49821472167969 L -0.5961682200431824 -48.58371353149414 L -1.8445583581924438 -48.804805755615234 L -2.407273530960083 -49.09661865234375 L -2.4982478618621826 -49.152000427246094 L -3.029862403869629 -49.47563171386719 L -3.492673635482788 -49.90823745727539 L -3.9899954795837402 -50.44035720825195 L -4.319446086883545 -50.98169708251953 L -4.532261848449707 -51.35068893432617 L -4.5929999351501465 -51.45600128173828 L -4.731471538543701 -51.910911560058594 L -4.854062080383301 -52.25566482543945 L -4.940785884857178 -52.796348571777344 L -4.995066165924072 -53.26770782470703 L -4.995151996612549 -53.26845169067383 L -4.9733123779296875 -53.585357666015625 L -4.923526763916016 -54.31233596801758 L -4.752528190612793 -54.922447204589844 L -4.508953094482422 -55.608741760253906 L -4.179502487182617 -56.150081634521484 L -3.759268045425415 -56.74483108520508 L -3.296457052230835 -57.17744064331055 L -2.888000011444092 -57.54199981689453 L -2.5838372707366943 -57.69998550415039 L -2.325284957885742 -57.83427810668945 L -2.0195322036743164 -57.919776916503906 L -0.8375230431556702 -58.38016128540039 L -0.20510752499103546 -58.42337417602539 L 0 -58.4326057434082 L 0.34200000762939453 -58.448001861572266 L 0.6746957898139954 -58.37896728515625 L 0.9623340964317322 -58.31928634643555 L 1.253682017326355 -58.19196701049805 L 2.4603164196014404 -57.80224609375 L 2.9779584407806396 -57.437015533447266 L 3.542732000350952 -56.977169036865234 L 3.94281268119812 -56.48554611206055 L 4.2789998054504395 -56.053001403808594 L 4.708000183105469 -55.124000549316406 L 4.806034088134766 -54.7400016784668 L 4.960999965667725 -54.132999420166016 L 4.9733123779296875 -53.585357666015625 L 4.9733123779296875 -52.95154571533203 L 4.9087233543396 -52.640682220458984 L 4.760972499847412 -51.9276237487793 M 41.00699996948242 -24.34600067138672 L 40.959999084472656 -24.338546752929688 L 40.388999938964844 -24.24799919128418 L 39.770999908447266 -24.34600067138672 L 39.31909942626953 -24.576000213623047 L 39.2130012512207 -24.6299991607666 L 38.770999908447266 -25.072999954223633 L 38.48699951171875 -25.631000518798828 L 38.388999938964844 -26.249000549316406 L 38.44846725463867 -26.624000549316406 L 38.48699951171875 -26.867000579833984 L 38.770999908447266 -27.424999237060547 L 39.2130012512207 -27.867000579833984 L 39.770999908447266 -28.150999069213867 L 40.388999938964844 -28.249000549316406 L 40.959999084472656 -28.1584529876709 L 41.00699996948242 -28.150999069213867 L 41.564998626708984 -27.867000579833984 L 42.00699996948242 -27.424999237060547 L 42.29100036621094 -26.867000579833984 L 42.388999938964844 -26.249000549316406 L 42.29100036621094 -25.631000518798828 L 42.00699996948242 -25.072999954223633 L 41.564998626708984 -24.6299991607666 L 41.458900451660156 -24.576000213623047 L 41.00699996948242 -24.34600067138672 M -67.5 83 L -67.5 -17.253000259399414 L -67.5 -32.768001556396484 L -67.5 -49.152000427246094 L -67.5 -57.74300003051758 L -65.53600311279297 -57.74300003051758 L -53.619998931884766 -57.74300003051758 L -53.619998931884766 -49.152000427246094 L -53.619998931884766 -32.768001556396484 L -53.619998931884766 -17.253000259399414 L -53.49800109863281 -17.253000259399414 L -52.99800109863281 -17.253000259399414 L -49.152000427246094 -17.253000259399414 L -40.959999084472656 -17.253000259399414 L -37.12099838256836 -17.253000259399414 L -33.61899948120117 -17.253000259399414 L -33.61899948120117 -32.768001556396484 L -33.61899948120117 -40.959999084472656 L -33.61899948120117 -49.152000427246094 L -33.61899948120117 -57.34400177001953 L -33.61899948120117 -57.74300003051758 L -33.505001068115234 -57.74300003051758 L -33.505001068115234 -65.53600311279297 L -33.505001068115234 -73.72799682617188 L -33.505001068115234 -74.74600219726562 L -32.768001556396484 -74.74600219726562 L -25.402999877929688 -74.74600219726562 L 0 -74.74600219726562 L 20.73761558532715 -74.74600219726562 L 25.402999877929688 -74.74600219726562 L 28.027441024780273 -74.74600219726562 L 30.503999710083008 -74.74600219726562 L 30.503999710083008 -65.53600311279297 L 30.503999710083008 -54.7400016784668 L 30.38599967956543 -54.7400016784668 L 30.38599967956543 -30.900999069213867 L 30.38599967956543 -17.253000259399414 L 30.503999710083008 -17.253000259399414 L 32.768001556396484 -17.253000259399414 L 40.959999084472656 -17.253000259399414 L 49.152000427246094 -17.253000259399414 L 50.38800048828125 -17.253000259399414 L 50.38800048828125 -32.768001556396484 L 50.38800048828125 -49.152000427246094 L 50.38800048828125 -57.74300003051758 L 65.53600311279297 -57.74300003051758 L 67.5 -57.74300003051758 L 67.5 -49.152000427246094 L 67.5 -32.768001556396484 L 67.5 -17.253000259399414 L 67.5 51.50299835205078 L 67.5 72.50199890136719 L 67.5 83 L 57.00299835205078 83 L 51.49800109863281 83 L 50.99800109863281 83 L -37.12099838256836 83 L -52.99800109863281 83 L -58.50199890136719 83 L -59.00299835205078 83 L -67.5 83 M 42.00699996948242 -45.07699966430664 L 41.986000061035156 -45.055999755859375 L 41.564998626708984 -44.6349983215332 L 41.00699996948242 -44.35100173950195 L 40.959999084472656 -44.34354782104492 L 40.388999938964844 -44.25299835205078 L 39.770999908447266 -44.35100173950195 L 39.2130012512207 -44.6349983215332 L 38.79199981689453 -45.055999755859375 L 38.770999908447266 -45.07699966430664 L 38.48699951171875 -45.6349983215332 L 38.388999938964844 -46.25299835205078 L 38.48699951171875 -46.87099838256836 L 38.605587005615234 -47.104000091552734 L 38.770999908447266 -47.42900085449219 L 39.2130012512207 -47.87099838256836 L 39.770999908447266 -48.154998779296875 L 40.388999938964844 -48.25299835205078 L 40.959999084472656 -48.162452697753906 L 41.00699996948242 -48.154998779296875 L 41.564998626708984 -47.87099838256836 L 42.00699996948242 -47.42900085449219 L 42.29100036621094 -46.87099838256836 L 42.388999938964844 -46.25299835205078 L 42.29100036621094 -45.6349983215332 L 42.00699996948242 -45.07699966430664 M 25.402999877929688 -49.152000427246094 L 25.402999877929688 -54.7400016784668 L 25.402999877929688 -57.34400177001953 L 25.402999877929688 -65.53600311279297 L 25.402999877929688 -66.1520004272461 L 19.376102447509766 -66.1520004272461 L 0 -66.1520004272461 L -25.402999877929688 -66.1520004272461 L -25.402999877929688 -65.53600311279297 L -25.402999877929688 -57.34400177001953 L -25.402999877929688 -49.152000427246094 L -25.402999877929688 -40.750999450683594 L 0 -40.750999450683594 L 25.402999877929688 -40.750999450683594 L 25.402999877929688 -46.742530822753906 L 25.402999877929688 -49.152000427246094 M 38.770999908447266 -65.43099975585938 L 38.875999450683594 -65.53600311279297 L 39.2130012512207 -65.87300109863281 L 39.770999908447266 -66.15699768066406 L 40.388999938964844 -66.25499725341797 L 41.00699996948242 -66.15699768066406 L 41.564998626708984 -65.87300109863281 L 41.902000427246094 -65.53600311279297 L 42.00699996948242 -65.43099975585938 L 42.29100036621094 -64.87300109863281 L 42.388999938964844 -64.25499725341797 L 42.29100036621094 -63.637001037597656 L 42.00699996948242 -63.07899856567383 L 41.564998626708984 -62.637001037597656 L 41.00699996948242 -62.35300064086914 L 40.959999084472656 -62.34554672241211 L 40.388999938964844 -62.255001068115234 L 39.770999908447266 -62.35300064086914 L 39.2130012512207 -62.637001037597656 L 38.770999908447266 -63.07899856567383 L 38.48699951171875 -63.637001037597656 L 38.388999938964844 -64.25499725341797 L 38.48699951171875 -64.87300109863281 L 38.770999908447266 -65.43099975585938 M -44.79800033569336 -62.637001037597656 L -45.055999755859375 -62.89500045776367 L -45.2400016784668 -63.07899856567383 L -45.52399826049805 -63.637001037597656 L -45.62200164794922 -64.25499725341797 L -45.52399826049805 -64.87300109863281 L -45.2400016784668 -65.43099975585938 L -45.1349983215332 -65.53600311279297 L -45.055999755859375 -65.61499786376953 L -44.79800033569336 -65.87300109863281 L -44.2400016784668 -66.15699768066406 L -43.62200164794922 -66.25499725341797 L -43.00299835205078 -66.15699768066406 L -42.44499969482422 -65.87300109863281 L -42.108001708984375 -65.53600311279297 L -42.00299835205078 -65.43099975585938 L -41.71900177001953 -64.87300109863281 L -41.62099838256836 -64.25499725341797 L -41.71900177001953 -63.637001037597656 L -41.79483413696289 -63.487998962402344 L -42.00299835205078 -63.07899856567383 L -42.44499969482422 -62.637001037597656 L -43.00299835205078 -62.35300064086914 L -43.62200164794922 -62.255001068115234 L -44.2400016784668 -62.35300064086914 L -44.79800033569336 -62.637001037597656 M -53.49800109863281 27.99799919128418 L -58.50199890136719 27.99799919128418 L -59.00299835205078 27.99799919128418 L -59.00299835205078 73.00299835205078 L -58.50199890136719 73.00299835205078 L -52.99800109863281 73.00299835205078 L -52.99800109863281 72.50199890136719 L -52.99800109863281 27.99799919128418 L -53.49800109863281 27.99799919128418 M 51.49800109863281 27.99799919128418 L 50.99800109863281 27.99799919128418 L 50.99800109863281 51.50299835205078 L 50.99800109863281 73.00299835205078 L 51.49800109863281 73.00299835205078 L 57.00299835205078 73.00299835205078 L 57.00299835205078 72.50199890136719 L 57.00299835205078 51.50299835205078 L 57.00299835205078 27.99799919128418 L 56.50199890136719 27.99799919128418 L 51.49800109863281 27.99799919128418 z" fill="none" stroke="rgb(0,0,255)" stroke-width="0.01mm" />
</svg>